<svg data-v-423bf9ae="" xmlns="http://www.w3.org/2000/svg" viewBox="0 0 275.44898795684406 60" class="font"><!----><!----><!----><g data-v-423bf9ae="" id="eb8f221b-b2d8-4021-8e0d-86a43e9fd597" fill="white" transform="matrix(6.122449456230433,0,0,6.122449456230433,2.3877518979246872,-11.816328097660907)"><path d="M0.49 6.62L0.49 1.94L3.46 1.94L3.46 1.94Q5.33 1.94 6.03 3.21L6.03 3.21L6.03 3.21Q6.62 4.20 6.62 6.48L6.62 6.48L6.91 6.48L6.91 8.82L4.02 8.82L4.02 8.56L4.92 8.56L4.92 6.48L4.66 6.48L4.66 5.63L4.66 5.63Q4.66 4.18 4.02 3.79L4.02 3.79L4.02 3.79Q3.64 3.57 2.80 3.57L2.80 3.57L2.41 3.57L2.41 6.43L2.67 6.43L2.67 8.82L0.71 8.82L0.71 6.62L0.49 6.62ZM4.71 8.09L4.71 8.09L4.81 8.09L4.81 8.34L4.86 8.34L4.86 8.42L4.81 8.42L4.81 8.52L4.71 8.52L4.71 8.42L4.53 8.42L4.53 8.36L4.53 8.36Q4.71 8.11 4.71 8.09ZM4.63 8.34L4.63 8.34L4.71 8.34L4.71 8.24L4.71 8.24Q4.69 8.24 4.63 8.34ZM2.90 8.54L2.77 8.33L2.86 8.33L2.86 8.33Q2.88 8.33 2.97 8.44L2.97 8.44L2.97 8.44Q3.04 8.36 3.04 8.33L3.04 8.33L3.14 8.33L3.14 8.34L3.14 8.34Q3.04 8.50 3.04 8.54L3.04 8.54L3.17 8.75L3.04 8.75L3.04 8.75Q3.04 8.70 2.95 8.62L2.95 8.62L2.95 8.62Q2.89 8.74 2.85 8.75L2.85 8.75L2.75 8.75L2.75 8.75Q2.86 8.55 2.90 8.54L2.90 8.54ZM-0.39 9.13L-0.39 8.82L0.50 8.82L0.50 9.13L2.67 9.13L2.67 9.78L4.02 9.78L4.02 9.13L6.91 9.13L6.91 9.78L4.92 9.78L4.92 11.52L2.67 11.52L2.67 11.73L0.51 11.73L0.51 11.73Q0.49 11.73 0.49 11.70L0.49 11.70L0.49 9.13L-0.39 9.13ZM2.67 9.13L2.67 8.82L4.02 8.82L4.02 9.13L2.67 9.13ZM6.91 9.13L6.91 8.82L8.84 8.82L8.84 9.13L6.91 9.13ZM5.15 9.84L5.15 9.84L5.27 9.84L5.27 9.84Q5.39 10.16 5.41 10.28L5.41 10.28L5.33 10.28L5.33 10.28Q5.30 10.28 5.28 10.19L5.28 10.19L5.15 10.19L5.15 10.19Q5.12 10.19 5.11 10.28L5.11 10.28L5.00 10.28L5.00 10.27L5.00 10.27Q5.00 10.25 5.15 9.84ZM5.53 9.84L5.53 9.84L5.63 9.84L5.71 10.12L5.73 10.12L5.73 10.12Q5.73 10.09 5.81 9.84L5.81 9.84L5.91 9.84L5.91 9.84Q5.91 9.89 5.78 10.28L5.78 10.28L5.68 10.28L5.68 10.28Q5.64 10.28 5.53 9.84ZM6.08 10.28L6.08 9.84L6.19 9.84L6.19 10.28L6.08 10.28ZM6.38 10.28L6.38 9.84L6.57 9.84L6.57 9.84Q6.78 9.84 6.78 10.08L6.78 10.08L6.78 10.08Q6.78 10.25 6.57 10.28L6.57 10.28L6.38 10.28ZM6.60 9.94L6.50 9.94L6.50 10.19L6.60 10.19L6.60 10.19Q6.62 10.19 6.67 10.12L6.67 10.12L6.67 10.00L6.67 10.00Q6.67 9.98 6.60 9.94L6.60 9.94ZM5.22 9.97L5.20 9.97L5.20 9.97Q5.20 9.99 5.17 10.10L5.17 10.10L5.25 10.10L5.25 10.10Q5.22 9.99 5.22 9.97L5.22 9.97ZM8.70 7.57L10.38 1.96L12.02 1.96L12.02 1.96Q12.06 2.10 13.62 7.29L13.62 7.29L13.92 7.29L13.92 10.51L13.25 10.51L13.25 10.76L13.92 10.76L13.92 11.45L12.11 11.45L12.11 9.47L9.88 9.47L9.88 10.32L8.98 10.32L8.98 11.73L7.33 11.73L7.33 11.63L7.46 11.63L7.46 10.32L8.13 10.32L8.13 7.57L8.70 7.57ZM11.18 4.71L11.15 4.71L11.15 4.72L11.15 4.72Q10.94 5.89 10.33 8.40L10.33 8.40L11.86 8.40L11.86 7.29L11.73 7.29L11.73 7.29Q11.18 4.92 11.18 4.71L11.18 4.71ZM6.85 7.57L6.85 7.28L8.13 7.28L8.13 7.57L6.85 7.57ZM12.11 11.73L12.11 11.57L14.30 11.57L14.30 11.73L12.11 11.73ZM14.02 1.93L14.02 1.93L16.10 1.93L16.10 1.93Q16.12 2.10 16.88 5.75L16.88 5.75L17.32 5.75L17.32 6.13L16.80 6.13L16.80 5.75L16.06 5.75L16.06 6.13L16.80 6.13L16.80 7.88L17.03 7.88L17.03 8.79L17.60 8.79L17.60 7.45L17.82 7.45L17.82 6.13L18.23 6.13L18.23 5.75L17.91 5.75L17.91 5.75Q18.68 2.10 18.70 1.93L18.70 1.93L20.77 1.93L20.77 1.93Q19.65 6.84 19.65 6.93L19.65 6.93L19.65 8.63L19.07 8.63L19.07 8.97L19.50 8.97L19.50 9.97L18.73 9.97L18.73 11.73L16.30 11.73L16.30 11.73Q16.26 11.73 16.10 10.98L16.10 10.98L16.73 10.98L16.73 10.57L16.03 10.57L16.03 10.57Q15.98 10.57 15.83 9.78L15.83 9.78L15.83 9.78Q15.76 9.54 14.02 1.93ZM21.97 11.70L21.97 10.19L23.32 10.19L23.32 10.19Q23.35 10.19 23.35 10.21L23.35 10.21L23.35 11.70L23.35 11.70Q23.35 11.73 23.32 11.73L23.32 11.73L22.00 11.73L22.00 11.73Q21.97 11.73 21.97 11.70L21.97 11.70ZM24.82 6.62L24.82 1.94L27.79 1.94L27.79 1.94Q29.66 1.94 30.37 3.21L30.37 3.21L30.37 3.21Q30.95 4.20 30.95 6.48L30.95 6.48L31.25 6.48L31.25 8.82L28.36 8.82L28.36 8.56L29.26 8.56L29.26 6.48L29.00 6.48L29.00 5.63L29.00 5.63Q29.00 4.18 28.36 3.79L28.36 3.79L28.36 3.79Q27.97 3.57 27.14 3.57L27.14 3.57L26.74 3.57L26.74 6.43L27.01 6.43L27.01 8.82L25.05 8.82L25.05 6.62L24.82 6.62ZM29.05 8.09L29.05 8.09L29.14 8.09L29.14 8.34L29.20 8.34L29.20 8.42L29.14 8.42L29.14 8.52L29.05 8.52L29.05 8.42L28.87 8.42L28.87 8.36L28.87 8.36Q29.05 8.11 29.05 8.09ZM28.96 8.34L28.96 8.34L29.05 8.34L29.05 8.24L29.05 8.24Q29.03 8.24 28.96 8.34ZM27.23 8.54L27.10 8.33L27.20 8.33L27.20 8.33Q27.22 8.33 27.30 8.44L27.30 8.44L27.30 8.44Q27.37 8.36 27.37 8.33L27.37 8.33L27.48 8.33L27.48 8.34L27.48 8.34Q27.37 8.50 27.37 8.54L27.37 8.54L27.50 8.75L27.37 8.75L27.37 8.75Q27.37 8.70 27.29 8.62L27.29 8.62L27.29 8.62Q27.23 8.74 27.19 8.75L27.19 8.75L27.09 8.75L27.09 8.75Q27.20 8.55 27.23 8.54L27.23 8.54ZM23.95 9.13L23.95 8.82L24.83 8.82L24.83 9.13L27.01 9.13L27.01 9.78L28.36 9.78L28.36 9.13L31.25 9.13L31.25 9.78L29.26 9.78L29.26 11.52L27.01 11.52L27.01 11.73L24.85 11.73L24.85 11.73Q24.82 11.73 24.82 11.70L24.82 11.70L24.82 9.13L23.95 9.13ZM27.01 9.13L27.01 8.82L28.36 8.82L28.36 9.13L27.01 9.13ZM31.25 9.13L31.25 8.82L33.17 8.82L33.17 9.13L31.25 9.13ZM29.49 9.84L29.49 9.84L29.61 9.84L29.61 9.84Q29.72 10.16 29.75 10.28L29.75 10.28L29.67 10.28L29.67 10.28Q29.64 10.28 29.62 10.19L29.62 10.19L29.49 10.19L29.49 10.19Q29.46 10.19 29.44 10.28L29.44 10.28L29.34 10.28L29.34 10.27L29.34 10.27Q29.34 10.25 29.49 9.84ZM29.87 9.84L29.87 9.84L29.97 9.84L30.05 10.12L30.06 10.12L30.06 10.12Q30.06 10.09 30.15 9.84L30.15 9.84L30.25 9.84L30.25 9.84Q30.25 9.89 30.11 10.28L30.11 10.28L30.02 10.28L30.02 10.28Q29.98 10.28 29.87 9.84ZM30.41 10.28L30.41 9.84L30.53 9.84L30.53 10.28L30.41 10.28ZM30.72 10.28L30.72 9.84L30.91 9.84L30.91 9.84Q31.12 9.84 31.12 10.08L31.12 10.08L31.12 10.08Q31.12 10.25 30.91 10.28L30.91 10.28L30.72 10.28ZM30.94 9.94L30.84 9.94L30.84 10.19L30.94 10.19L30.94 10.19Q30.96 10.19 31.00 10.12L31.00 10.12L31.00 10.00L31.00 10.00Q31.00 9.98 30.94 9.94L30.94 9.94ZM29.56 9.97L29.54 9.97L29.54 9.97Q29.54 9.99 29.50 10.10L29.50 10.10L29.59 10.10L29.59 10.10Q29.56 9.99 29.56 9.97L29.56 9.97ZM32.28 6.80L32.28 2.00L37.07 2.00L37.07 3.60L37.07 3.60Q37.07 3.63 37.04 3.63L37.04 3.63L34.19 3.63L34.19 5.74L36.74 5.74L36.74 5.76L36.74 5.76Q36.74 5.84 36.72 6.79L36.72 6.79L36.72 6.79Q36.70 6.79 36.70 6.80L36.70 6.80L36.81 6.80L36.81 7.29L34.60 7.29L34.60 9.29L34.01 9.29L34.01 9.49L34.60 9.49L34.60 10.10L37.11 10.10L37.11 10.32L36.91 10.32L36.91 11.52L33.91 11.52L33.91 11.73L32.49 11.73L32.49 8.24L32.28 8.24L32.28 7.01L30.72 7.01L30.72 6.80L32.28 6.80ZM33.09 6.80L32.29 6.80L32.29 7.01L33.09 7.01L33.09 6.80ZM37.84 1.93L37.84 1.93L39.92 1.93L39.92 1.93Q39.94 2.10 40.71 5.75L40.71 5.75L41.14 5.75L41.14 6.13L40.62 6.13L40.62 5.75L39.89 5.75L39.89 6.13L40.62 6.13L40.62 7.88L40.85 7.88L40.85 8.79L41.43 8.79L41.43 7.45L41.64 7.45L41.64 6.13L42.05 6.13L42.05 5.75L41.73 5.75L41.73 5.75Q42.50 2.10 42.52 1.93L42.52 1.93L44.60 1.93L44.60 1.93Q43.47 6.84 43.47 6.93L43.47 6.93L43.47 8.63L42.90 8.63L42.90 8.97L43.33 8.97L43.33 9.97L42.55 9.97L42.55 11.73L40.12 11.73L40.12 11.73Q40.09 11.73 39.92 10.98L39.92 10.98L40.55 10.98L40.55 10.57L39.85 10.57L39.85 10.57Q39.81 10.57 39.66 9.78L39.66 9.78L39.66 9.78Q39.58 9.54 37.84 1.93Z"></path></g><!----><!----></svg>